<mxfile host="65bd71144e">
    <diagram id="vp0iyeaYwTQafGfx0dzU" name="Page-1">
        <mxGraphModel dx="466" dy="489" grid="1" gridSize="10" guides="1" tooltips="1" connect="1" arrows="1" fold="1" page="1" pageScale="1" pageWidth="1169" pageHeight="827" math="0" shadow="0">
            <root>
                <mxCell id="0"/>
                <mxCell id="1" parent="0"/>
                <mxCell id="6" value="main_frame" style="rounded=0;whiteSpace=wrap;html=1;fillColor=#e1d5e7;strokeColor=#9673a6;verticalAlign=top;" vertex="1" parent="1">
                    <mxGeometry x="160" y="40" width="480" height="360" as="geometry"/>
                </mxCell>
                <mxCell id="2" value="work_frame" style="rounded=0;whiteSpace=wrap;html=1;fillColor=#f8cecc;strokeColor=#b85450;verticalAlign=top;" parent="1" vertex="1">
                    <mxGeometry x="200" y="80" width="400" height="240" as="geometry"/>
                </mxCell>
                <mxCell id="3" value="entry_frame" style="whiteSpace=wrap;html=1;aspect=fixed;fillColor=#fff2cc;strokeColor=#d6b656;" parent="1" vertex="1">
                    <mxGeometry x="210" y="130" width="180" height="180" as="geometry"/>
                </mxCell>
                <mxCell id="4" value="preview_frame" style="whiteSpace=wrap;html=1;aspect=fixed;fillColor=#d5e8d4;strokeColor=#82b366;" parent="1" vertex="1">
                    <mxGeometry x="405" y="130" width="180" height="180" as="geometry"/>
                </mxCell>
                <mxCell id="5" value="control_frame" style="rounded=0;whiteSpace=wrap;html=1;fillColor=#dae8fc;strokeColor=#6c8ebf;" parent="1" vertex="1">
                    <mxGeometry x="200" y="320" width="400" height="40" as="geometry"/>
                </mxCell>
            </root>
        </mxGraphModel>
    </diagram>
</mxfile>